<svg xmlns="http://www.w3.org/2000/svg" xmlns:xlink="http://www.w3.org/1999/xlink" width="500" zoomAndPan="magnify" viewBox="0 0 375 374.999991" height="500" preserveAspectRatio="xMidYMid meet" version="1.0"><defs><clipPath id="418ee2f8a1"><path d="M 37.5 37.5 L 337.5 37.5 L 337.5 337.5 L 37.5 337.5 Z M 37.5 37.5 " clip-rule="nonzero"/></clipPath></defs><g clip-path="url(#418ee2f8a1)"><path fill="#a4c639" d="M 82.5 37.5 L 292.5 37.5 C 293.972656 37.5 295.445312 37.570312 296.910156 37.714844 C 298.378906 37.859375 299.832031 38.078125 301.277344 38.363281 C 302.722656 38.652344 304.152344 39.011719 305.5625 39.4375 C 306.972656 39.867188 308.359375 40.363281 309.722656 40.925781 C 311.082031 41.488281 312.414062 42.117188 313.710938 42.8125 C 315.011719 43.507812 316.273438 44.265625 317.5 45.082031 C 318.726562 45.902344 319.910156 46.78125 321.046875 47.714844 C 322.1875 48.648438 323.277344 49.636719 324.320312 50.679688 C 325.363281 51.722656 326.351562 52.8125 327.285156 53.953125 C 328.21875 55.089844 329.097656 56.273438 329.917969 57.5 C 330.734375 58.726562 331.492188 59.988281 332.1875 61.289062 C 332.882812 62.585938 333.511719 63.917969 334.074219 65.277344 C 334.636719 66.640625 335.132812 68.027344 335.5625 69.4375 C 335.988281 70.847656 336.347656 72.277344 336.636719 73.722656 C 336.921875 75.167969 337.140625 76.621094 337.285156 78.089844 C 337.429688 79.554688 337.5 81.027344 337.5 82.5 L 337.5 292.5 C 337.5 293.972656 337.429688 295.445312 337.285156 296.910156 C 337.140625 298.378906 336.921875 299.832031 336.636719 301.277344 C 336.347656 302.722656 335.988281 304.152344 335.5625 305.5625 C 335.132812 306.972656 334.636719 308.359375 334.074219 309.722656 C 333.511719 311.082031 332.882812 312.414062 332.1875 313.710938 C 331.492188 315.011719 330.734375 316.273438 329.917969 317.5 C 329.097656 318.726562 328.21875 319.910156 327.285156 321.046875 C 326.351562 322.1875 325.363281 323.277344 324.320312 324.320312 C 323.277344 325.363281 322.1875 326.351562 321.046875 327.285156 C 319.910156 328.21875 318.726562 329.097656 317.5 329.917969 C 316.273438 330.734375 315.011719 331.492188 313.710938 332.1875 C 312.414062 332.882812 311.082031 333.511719 309.722656 334.074219 C 308.359375 334.636719 306.972656 335.132812 305.5625 335.5625 C 304.152344 335.988281 302.722656 336.347656 301.277344 336.636719 C 299.832031 336.921875 298.378906 337.140625 296.910156 337.285156 C 295.445312 337.429688 293.972656 337.5 292.5 337.5 L 82.5 337.5 C 81.027344 337.5 79.554688 337.429688 78.089844 337.285156 C 76.621094 337.140625 75.167969 336.921875 73.722656 336.636719 C 72.277344 336.347656 70.847656 335.988281 69.4375 335.5625 C 68.027344 335.132812 66.640625 334.636719 65.277344 334.074219 C 63.917969 333.511719 62.585938 332.882812 61.289062 332.1875 C 59.988281 331.492188 58.726562 330.734375 57.5 329.917969 C 56.273438 329.097656 55.089844 328.21875 53.953125 327.285156 C 52.8125 326.351562 51.722656 325.363281 50.679688 324.320312 C 49.636719 323.277344 48.648438 322.1875 47.714844 321.046875 C 46.78125 319.910156 45.902344 318.726562 45.082031 317.5 C 44.265625 316.273438 43.507812 315.011719 42.8125 313.710938 C 42.117188 312.414062 41.488281 311.082031 40.925781 309.722656 C 40.363281 308.359375 39.867188 306.972656 39.4375 305.5625 C 39.011719 304.152344 38.652344 302.722656 38.363281 301.277344 C 38.078125 299.832031 37.859375 298.378906 37.714844 296.910156 C 37.570312 295.445312 37.5 293.972656 37.5 292.5 L 37.5 82.5 C 37.5 81.027344 37.570312 79.554688 37.714844 78.089844 C 37.859375 76.621094 38.078125 75.167969 38.363281 73.722656 C 38.652344 72.277344 39.011719 70.847656 39.4375 69.4375 C 39.867188 68.027344 40.363281 66.640625 40.925781 65.277344 C 41.488281 63.917969 42.117188 62.585938 42.8125 61.289062 C 43.507812 59.988281 44.265625 58.726562 45.082031 57.5 C 45.902344 56.273438 46.78125 55.089844 47.714844 53.953125 C 48.648438 52.8125 49.636719 51.722656 50.679688 50.679688 C 51.722656 49.636719 52.8125 48.648438 53.953125 47.714844 C 55.089844 46.78125 56.273438 45.902344 57.5 45.082031 C 58.726562 44.265625 59.988281 43.507812 61.289062 42.8125 C 62.585938 42.117188 63.917969 41.488281 65.277344 40.925781 C 66.640625 40.363281 68.027344 39.867188 69.4375 39.4375 C 70.847656 39.011719 72.277344 38.652344 73.722656 38.363281 C 75.167969 38.078125 76.621094 37.859375 78.089844 37.714844 C 79.554688 37.570312 81.027344 37.5 82.5 37.5 Z M 82.5 37.5 " fill-opacity="1" fill-rule="nonzero"/></g><path stroke-linecap="round" transform="matrix(0.585937, 0, 0, 0.585937, 37.500002, 37.499998)" fill-opacity="1" fill="#000000" fill-rule="nonzero" stroke-linejoin="miter" d="M 107.000001 212.000014 L 107.000001 318.000019 M 406.000015 212.000014 L 406.000015 318.000019 M 299.00001 384.000022 L 299.00001 440.000024 M 214.000006 384.000022 L 214.000006 440.000024 " stroke="#ffffff" stroke-width="58" stroke-opacity="1" stroke-miterlimit="4"/><path stroke-linecap="round" transform="matrix(0.585937, 0, 0, 0.585937, 37.500002, 37.499998)" fill-opacity="1" fill="#000000" fill-rule="nonzero" stroke-linejoin="miter" d="M 203.000006 88.000008 L 186.000005 56.000007 M 309.00001 88.000008 L 327.000011 56.000007 " stroke="#ffffff" stroke-width="8" stroke-opacity="1" stroke-miterlimit="4"/><path fill="#ffffff" d="M 188.085938 82.03125 C 143.554688 82.03125 120.703125 117.1875 120.703125 143.554688 L 254.882812 143.554688 C 254.882812 116.015625 230.273438 82.617188 188.085938 82.03125 Z M 120.703125 149.414062 L 120.703125 245.507812 C 120.703125 254.882812 128.320312 262.5 137.109375 262.5 L 237.890625 262.5 C 247.265625 262.5 254.882812 254.882812 254.882812 245.507812 L 254.882812 149.414062 Z M 120.703125 149.414062 " fill-opacity="1" fill-rule="nonzero"/><path fill="#a4c639" d="M 162.304688 113.671875 C 162.304688 114.019531 162.269531 114.359375 162.203125 114.699219 C 162.136719 115.039062 162.035156 115.371094 161.902344 115.691406 C 161.769531 116.011719 161.609375 116.3125 161.414062 116.601562 C 161.222656 116.890625 161.003906 117.15625 160.761719 117.402344 C 160.515625 117.644531 160.25 117.863281 159.960938 118.054688 C 159.671875 118.25 159.371094 118.410156 159.050781 118.542969 C 158.730469 118.675781 158.398438 118.777344 158.058594 118.84375 C 157.71875 118.910156 157.378906 118.945312 157.03125 118.945312 C 156.683594 118.945312 156.34375 118.910156 156.003906 118.84375 C 155.664062 118.777344 155.332031 118.675781 155.011719 118.542969 C 154.691406 118.410156 154.390625 118.25 154.101562 118.054688 C 153.8125 117.863281 153.546875 117.644531 153.300781 117.402344 C 153.058594 117.15625 152.839844 116.890625 152.648438 116.601562 C 152.453125 116.3125 152.292969 116.011719 152.160156 115.691406 C 152.027344 115.371094 151.925781 115.039062 151.859375 114.699219 C 151.792969 114.359375 151.757812 114.019531 151.757812 113.671875 C 151.757812 113.324219 151.792969 112.984375 151.859375 112.644531 C 151.925781 112.304688 152.027344 111.972656 152.160156 111.652344 C 152.292969 111.332031 152.453125 111.03125 152.648438 110.742188 C 152.839844 110.453125 153.058594 110.1875 153.300781 109.941406 C 153.546875 109.699219 153.8125 109.480469 154.101562 109.289062 C 154.390625 109.09375 154.691406 108.933594 155.011719 108.800781 C 155.332031 108.667969 155.664062 108.566406 156.003906 108.5 C 156.34375 108.433594 156.683594 108.398438 157.03125 108.398438 C 157.378906 108.398438 157.71875 108.433594 158.058594 108.5 C 158.398438 108.566406 158.730469 108.667969 159.050781 108.800781 C 159.371094 108.933594 159.671875 109.09375 159.960938 109.289062 C 160.25 109.480469 160.515625 109.699219 160.761719 109.941406 C 161.003906 110.1875 161.222656 110.453125 161.414062 110.742188 C 161.609375 111.03125 161.769531 111.332031 161.902344 111.652344 C 162.035156 111.972656 162.136719 112.304688 162.203125 112.644531 C 162.269531 112.984375 162.304688 113.324219 162.304688 113.671875 Z M 162.304688 113.671875 " fill-opacity="1" fill-rule="nonzero"/><path fill="#a4c639" d="M 223.828125 113.671875 C 223.828125 114.019531 223.792969 114.359375 223.726562 114.699219 C 223.660156 115.039062 223.558594 115.371094 223.425781 115.691406 C 223.292969 116.011719 223.132812 116.3125 222.9375 116.601562 C 222.746094 116.890625 222.527344 117.15625 222.285156 117.402344 C 222.039062 117.644531 221.773438 117.863281 221.484375 118.054688 C 221.195312 118.25 220.894531 118.410156 220.574219 118.542969 C 220.253906 118.675781 219.921875 118.777344 219.582031 118.84375 C 219.242188 118.910156 218.902344 118.945312 218.554688 118.945312 C 218.207031 118.945312 217.867188 118.910156 217.527344 118.84375 C 217.1875 118.777344 216.855469 118.675781 216.535156 118.542969 C 216.214844 118.410156 215.914062 118.25 215.625 118.054688 C 215.335938 117.863281 215.070312 117.644531 214.824219 117.402344 C 214.582031 117.15625 214.363281 116.890625 214.171875 116.601562 C 213.976562 116.3125 213.816406 116.011719 213.683594 115.691406 C 213.550781 115.371094 213.449219 115.039062 213.382812 114.699219 C 213.316406 114.359375 213.28125 114.019531 213.28125 113.671875 C 213.28125 113.324219 213.316406 112.984375 213.382812 112.644531 C 213.449219 112.304688 213.550781 111.972656 213.683594 111.652344 C 213.816406 111.332031 213.976562 111.03125 214.171875 110.742188 C 214.363281 110.453125 214.582031 110.1875 214.824219 109.941406 C 215.070312 109.699219 215.335938 109.480469 215.625 109.289062 C 215.914062 109.09375 216.214844 108.933594 216.535156 108.800781 C 216.855469 108.667969 217.1875 108.566406 217.527344 108.5 C 217.867188 108.433594 218.207031 108.398438 218.554688 108.398438 C 218.902344 108.398438 219.242188 108.433594 219.582031 108.5 C 219.921875 108.566406 220.253906 108.667969 220.574219 108.800781 C 220.894531 108.933594 221.195312 109.09375 221.484375 109.289062 C 221.773438 109.480469 222.039062 109.699219 222.285156 109.941406 C 222.527344 110.1875 222.746094 110.453125 222.9375 110.742188 C 223.132812 111.03125 223.292969 111.332031 223.425781 111.652344 C 223.558594 111.972656 223.660156 112.304688 223.726562 112.644531 C 223.792969 112.984375 223.828125 113.324219 223.828125 113.671875 Z M 223.828125 113.671875 " fill-opacity="1" fill-rule="nonzero"/></svg>