<svg xmlns="http://www.w3.org/2000/svg" xmlns:xlink="http://www.w3.org/1999/xlink" width="500" zoomAndPan="magnify" viewBox="0 0 375 374.999991" height="500" preserveAspectRatio="xMidYMid meet" version="1.0"><defs><clipPath id="3394fef715"><path d="M 37.5 37.5 L 337.5 37.5 L 337.5 337.5 L 37.5 337.5 Z M 37.5 37.5 " clip-rule="nonzero"/></clipPath></defs><g clip-path="url(#3394fef715)"><path fill="#cb6ce6" d="M 312.5 37.5 L 62.5 37.5 C 48.699219 37.5 37.5 48.6875 37.5 62.5 L 37.5 312.5 C 37.5 326.3125 48.699219 337.5 62.5 337.5 L 312.5 337.5 C 326.300781 337.5 337.5 326.3125 337.5 312.5 L 337.5 62.5 C 337.5 48.6875 326.300781 37.5 312.5 37.5 Z M 260.164062 248.164062 L 260.164062 248.1875 C 257.664062 254.210938 253.699219 259.523438 248.625 263.613281 C 243.375 267.863281 236.726562 271.363281 228.539062 273.863281 C 220.363281 276.398438 210.636719 277.675781 199.375 277.675781 L 118.976562 277.675781 L 118.976562 102.675781 L 204 102.675781 C 219.726562 102.675781 232.324219 106.210938 241.75 113.425781 C 251.25 120.675781 255.976562 131.476562 255.976562 146.050781 C 255.976562 154.863281 253.824219 162.425781 249.5 168.675781 C 245.199219 174.886719 239 179.75 231 183.125 L 231 183.699219 C 241.675781 185.949219 249.9375 191.011719 255.375 198.886719 C 260.8125 206.761719 263.601562 216.710938 263.601562 228.726562 C 263.601562 235.449219 262.300781 241.851562 259.851562 247.824219 Z M 260.164062 248.164062 " fill-opacity="1" fill-rule="nonzero"/></g><path fill="#cb6ce6" d="M 225.460938 205.0625 C 220.335938 200.375 213.136719 198.085938 203.835938 198.085938 L 149.8125 198.085938 L 149.8125 252.6875 L 203.988281 252.6875 C 213.238281 252.6875 220.488281 250.289062 225.613281 245.4375 C 230.738281 240.625 233.363281 233.761719 233.363281 224.9375 C 233.273438 216.3125 230.738281 209.636719 225.613281 205.0625 Z M 225.460938 205.0625 " fill-opacity="1" fill-rule="nonzero"/><path fill="#cb6ce6" d="M 217.914062 169.773438 L 217.960938 169.773438 C 222.914062 165.574219 225.335938 159.5625 225.335938 151.726562 C 225.335938 142.925781 223.148438 136.675781 218.710938 133.101562 C 214.3125 129.539062 207.960938 127.6875 199.613281 127.6875 L 149.613281 127.6875 L 149.613281 175.976562 L 199.613281 175.976562 C 206.898438 175.976562 213.113281 173.851562 217.914062 169.773438 Z M 217.914062 169.773438 " fill-opacity="1" fill-rule="nonzero"/></svg>