<svg xmlns="http://www.w3.org/2000/svg" xmlns:xlink="http://www.w3.org/1999/xlink" width="500" zoomAndPan="magnify" viewBox="0 0 375 374.999991" height="500" preserveAspectRatio="xMidYMid meet" version="1.0"><path fill="#283593" d="M 179.703125 40.242188 C 184.527344 37.535156 190.472656 37.535156 195.292969 40.242188 C 219.140625 53.628906 290.914062 93.925781 314.773438 107.308594 C 319.597656 110.011719 322.570312 115.015625 322.570312 120.433594 C 322.570312 147.207031 322.570312 227.785156 322.570312 254.558594 C 322.570312 259.976562 319.597656 264.980469 314.773438 267.691406 C 290.921875 281.074219 219.148438 321.371094 195.292969 334.757812 C 190.464844 337.464844 184.519531 337.464844 179.703125 334.757812 C 155.851562 321.371094 84.078125 281.074219 60.21875 267.691406 C 55.402344 264.980469 52.429688 259.984375 52.429688 254.566406 C 52.429688 227.792969 52.429688 147.214844 52.429688 120.441406 C 52.429688 115.023438 55.402344 110.019531 60.226562 107.308594 C 84.070312 93.925781 155.859375 53.628906 179.703125 40.242188 Z M 179.703125 40.242188 " fill-opacity="1" fill-rule="evenodd"/><path fill="#5c6bc0" d="M 54.589844 261.460938 C 52.699219 258.929688 52.429688 256.527344 52.429688 253.292969 C 52.429688 226.675781 52.429688 146.558594 52.429688 119.9375 C 52.429688 114.546875 55.394531 109.570312 60.207031 106.882812 C 83.972656 93.574219 155.503906 53.515625 179.269531 40.203125 C 184.082031 37.507812 190.597656 37.5625 195.414062 40.257812 C 219.175781 53.566406 290.46875 93.285156 314.230469 106.59375 C 316.152344 107.671875 317.617188 108.972656 318.925781 110.6875 Z M 54.589844 261.460938 " fill-opacity="1" fill-rule="evenodd"/><path fill="#ffffff" d="M 187.5 87.972656 C 242.429688 87.972656 287.027344 132.570312 287.027344 187.5 C 287.027344 242.429688 242.429688 287.027344 187.5 287.027344 C 132.570312 287.027344 87.972656 242.429688 87.972656 187.5 C 87.972656 132.570312 132.570312 87.972656 187.5 87.972656 Z M 187.5 137.738281 C 214.960938 137.738281 237.261719 160.03125 237.261719 187.5 C 237.261719 214.960938 214.960938 237.261719 187.5 237.261719 C 160.039062 237.261719 137.738281 214.960938 137.738281 187.5 C 137.738281 160.03125 160.03125 137.738281 187.5 137.738281 Z M 187.5 137.738281 " fill-opacity="1" fill-rule="evenodd"/><path fill="#3949ab" d="M 318.910156 110.757812 C 322.578125 114.191406 322.507812 119.367188 322.507812 123.441406 C 322.507812 150.417969 322.28125 227.152344 322.570312 254.132812 C 322.597656 256.949219 321.667969 259.914062 320.273438 262.144531 L 184.605469 187.5 Z M 318.910156 110.757812 " fill-opacity="1" fill-rule="evenodd"/></svg>