<svg xmlns="http://www.w3.org/2000/svg" xmlns:xlink="http://www.w3.org/1999/xlink" width="500" zoomAndPan="magnify" viewBox="0 0 375 374.999991" height="500" preserveAspectRatio="xMidYMid meet" version="1.0"><defs><clipPath id="2765e00a2d"><path d="M 54 37.5 L 321.5625 37.5 L 321.5625 337.5 L 54 337.5 Z M 54 37.5 " clip-rule="nonzero"/></clipPath></defs><g clip-path="url(#2765e00a2d)"><path fill="#ff914d" d="M 319.71875 39.988281 C 318.480469 38.640625 316.746094 37.875 314.917969 37.875 L 60.734375 37.875 C 58.90625 37.875 57.167969 38.640625 55.933594 39.988281 C 54.695312 41.335938 54.09375 43.144531 54.253906 44.957031 L 77.152344 301.449219 C 77.394531 304.128906 79.261719 306.386719 81.851562 307.128906 L 186.011719 336.878906 C 186.589844 337.042969 187.1875 337.125 187.792969 337.125 C 188.398438 337.125 188.996094 337.042969 189.574219 336.878906 L 293.820312 307.128906 C 296.40625 306.386719 298.273438 304.128906 298.515625 301.449219 L 321.402344 44.957031 C 321.558594 43.136719 320.945312 41.335938 319.71875 39.988281 Z M 264.894531 128.421875 L 142.519531 128.421875 L 145.429688 161.535156 L 261.949219 161.535156 L 253.210938 259.378906 L 187.785156 279.164062 L 187.140625 278.96875 L 122.464844 259.371094 L 118.9375 219.492188 L 150.613281 219.492188 L 152.007812 234.976562 L 188.152344 242.550781 L 223.652344 234.964844 L 227.429688 193.101562 L 116.558594 193.101562 L 107.964844 96.773438 L 267.730469 96.773438 Z M 264.894531 128.421875 " fill-opacity="1" fill-rule="nonzero"/></g></svg>