<svg xmlns="http://www.w3.org/2000/svg" xmlns:xlink="http://www.w3.org/1999/xlink" width="500" zoomAndPan="magnify" viewBox="0 0 375 374.999991" height="500" preserveAspectRatio="xMidYMid meet" version="1.0"><defs><clipPath id="2b4a584c3d"><path d="M 40.121094 40.121094 L 334.878906 40.121094 L 334.878906 334.878906 L 40.121094 334.878906 Z M 40.121094 40.121094 " clip-rule="nonzero"/></clipPath><clipPath id="333e73db5c"><path d="M 57.371094 40.121094 L 317.628906 40.121094 C 322.203125 40.121094 326.589844 41.941406 329.824219 45.175781 C 333.058594 48.410156 334.878906 52.796875 334.878906 57.371094 L 334.878906 317.628906 C 334.878906 322.203125 333.058594 326.589844 329.824219 329.824219 C 326.589844 333.058594 322.203125 334.878906 317.628906 334.878906 L 57.371094 334.878906 C 52.796875 334.878906 48.410156 333.058594 45.175781 329.824219 C 41.941406 326.589844 40.121094 322.203125 40.121094 317.628906 L 40.121094 57.371094 C 40.121094 52.796875 41.941406 48.410156 45.175781 45.175781 C 48.410156 41.941406 52.796875 40.121094 57.371094 40.121094 Z M 57.371094 40.121094 " clip-rule="nonzero"/></clipPath><clipPath id="a4a2d27e35"><path d="M 155 59.742188 L 246 59.742188 L 246 208 L 155 208 Z M 155 59.742188 " clip-rule="nonzero"/></clipPath></defs><g clip-path="url(#2b4a584c3d)"><g clip-path="url(#333e73db5c)"><path fill="#ffffff" d="M 40.121094 40.121094 L 334.878906 40.121094 L 334.878906 334.878906 L 40.121094 334.878906 Z M 40.121094 40.121094 " fill-opacity="1" fill-rule="nonzero"/></g></g><path fill="#3949ab" d="M 155.238281 255.453125 C 155.238281 255.453125 145.507812 261.367188 162 263.0625 C 181.855469 265.59375 192.433594 265.171875 214.410156 260.949219 C 218.835938 263.660156 223.484375 265.914062 228.355469 267.710938 C 178.914062 288.851562 116.339844 266.445312 155.230469 255.453125 Z M 148.910156 227.976562 C 148.910156 227.976562 138.339844 236.007812 154.828125 237.707031 C 176.382812 239.820312 193.289062 240.238281 222.464844 234.328125 C 225.339844 237.246094 228.71875 239.359375 232.605469 240.667969 C 173.003906 258.417969 106.222656 242.359375 148.910156 227.984375 Z M 265.570312 276.152344 C 265.570312 276.152344 272.75 282.070312 257.539062 286.722656 C 229.21875 295.1875 138.769531 297.71875 113.40625 286.722656 C 104.53125 282.925781 121.433594 277.425781 126.855469 276.582031 C 132.351562 275.316406 135.320312 275.316406 135.320312 275.316406 C 125.589844 268.550781 70.648438 289.261719 107.425781 295.171875 C 208.445312 311.65625 291.714844 287.988281 265.503906 276.152344 Z M 159.808594 199.230469 C 159.808594 199.230469 113.738281 210.226562 143.324219 214.023438 C 156.003906 215.714844 180.941406 215.289062 204.1875 213.605469 C 223.207031 211.910156 242.238281 208.539062 242.238281 208.539062 C 242.238281 208.539062 235.476562 211.5 230.824219 214.457031 C 183.914062 226.71875 93.875 221.222656 119.664062 208.539062 C 141.640625 197.972656 159.816406 199.246094 159.816406 199.246094 Z M 242.238281 245.300781 C 289.578125 220.777344 267.601562 197.125 252.382812 200.078125 C 248.585938 200.921875 246.882812 201.769531 246.882812 201.769531 C 246.882812 201.769531 248.148438 199.238281 251.109375 198.390625 C 281.121094 187.824219 304.789062 230.089844 241.378906 246.566406 C 241.378906 246.566406 241.796875 246.148438 242.222656 245.300781 Z M 164.476562 312.082031 C 210.121094 315.042969 279.871094 310.390625 281.554688 288.828125 C 281.554688 288.828125 278.179688 297.289062 243.941406 303.621094 C 205.050781 310.800781 156.867188 309.949219 128.546875 305.3125 C 128.546875 305.3125 134.464844 310.375 164.476562 312.074219 Z M 164.476562 312.082031 " fill-opacity="1" fill-rule="nonzero"/><g clip-path="url(#a4a2d27e35)"><path fill="#f58219" d="M 213.570312 59.75 C 213.570312 59.75 239.78125 86.375 188.636719 126.53125 C 147.636719 159.074219 179.339844 177.671875 188.636719 198.8125 C 164.539062 177.253906 147.214844 158.230469 159.050781 140.484375 C 176.375 114.269531 224.140625 101.667969 213.570312 59.75 Z M 200.125 181.058594 C 212.382812 195.003906 196.746094 207.6875 196.746094 207.6875 C 196.746094 207.6875 228.023438 191.628906 213.652344 171.757812 C 200.550781 152.738281 190.394531 143.4375 245.347656 111.738281 C 245.347656 111.738281 158.703125 133.292969 200.125 181.058594 Z M 200.125 181.058594 " fill-opacity="1" fill-rule="nonzero"/></g></svg>