<svg xmlns="http://www.w3.org/2000/svg" xmlns:xlink="http://www.w3.org/1999/xlink" width="500" zoomAndPan="magnify" viewBox="0 0 375 374.999991" height="500" preserveAspectRatio="xMidYMid meet" version="1.0"><defs><clipPath id="4f0e3ea1d8"><path d="M 37.5 37.5 L 337.5 37.5 L 337.5 337.5 L 37.5 337.5 Z M 37.5 37.5 " clip-rule="nonzero"/></clipPath></defs><g clip-path="url(#4f0e3ea1d8)"><path fill="#ffde59" d="M 51.136719 37.5 C 43.605469 37.5 37.5 43.605469 37.5 51.136719 L 37.5 323.863281 C 37.5 331.394531 43.605469 337.5 51.136719 337.5 L 323.863281 337.5 C 331.394531 337.5 337.5 331.394531 337.5 323.863281 L 337.5 51.136719 C 337.5 43.605469 331.394531 37.5 323.863281 37.5 Z M 51.136719 37.5 " fill-opacity="1" fill-rule="nonzero"/></g><path fill="#ffffff" d="M 248.863281 201.136719 C 245.097656 201.136719 242.046875 204.191406 242.046875 207.953125 L 242.046875 214.773438 C 242.046875 218.539062 245.097656 221.589844 248.863281 221.589844 L 269.316406 221.589844 C 288.144531 221.589844 303.410156 236.855469 303.410156 255.683594 L 303.410156 262.5 C 303.410156 281.328125 288.144531 296.589844 269.316406 296.589844 L 228.410156 296.589844 L 228.410156 269.316406 L 269.316406 269.316406 C 273.082031 269.316406 276.136719 266.265625 276.136719 262.5 L 276.136719 255.683594 C 276.136719 251.917969 273.082031 248.863281 269.316406 248.863281 L 248.863281 248.863281 C 230.035156 248.863281 214.773438 233.601562 214.773438 214.773438 L 214.773438 207.953125 C 214.773438 189.125 230.035156 173.863281 248.863281 173.863281 L 289.773438 173.863281 L 289.773438 201.136719 Z M 248.863281 201.136719 " fill-opacity="1" fill-rule="evenodd"/><path fill="#ffffff" d="M 180.683594 262.5 L 180.683594 187.5 L 207.953125 187.5 L 207.953125 262.5 C 207.953125 281.328125 192.691406 296.589844 173.863281 296.589844 L 153.410156 296.589844 C 134.582031 296.589844 119.316406 281.328125 119.316406 262.5 L 119.316406 255.683594 L 146.589844 255.683594 L 146.589844 262.5 C 146.589844 266.265625 149.644531 269.316406 153.410156 269.316406 L 173.863281 269.316406 C 177.628906 269.316406 180.683594 266.265625 180.683594 262.5 Z M 180.683594 262.5 " fill-opacity="1" fill-rule="evenodd"/></svg>