<svg xmlns="http://www.w3.org/2000/svg" xmlns:xlink="http://www.w3.org/1999/xlink" width="500" zoomAndPan="magnify" viewBox="0 0 375 374.999991" height="500" preserveAspectRatio="xMidYMid meet" version="1.0"><defs><clipPath id="2943b0ba5e"><path d="M 120 37.5 L 189 37.5 L 189 301 L 120 301 Z M 120 37.5 " clip-rule="nonzero"/></clipPath><clipPath id="ce39f2d72f"><path d="M 182 262 L 200 262 L 200 337.5 L 182 337.5 Z M 182 262 " clip-rule="nonzero"/></clipPath></defs><path fill="#599636" d="M 187.167969 38.316406 L 195.1875 53.351562 C 196.992188 56.128906 198.945312 58.585938 201.246094 60.871094 C 207.964844 67.574219 214.34375 74.597656 220.074219 82.117188 C 233.664062 99.929688 242.832031 119.710938 249.382812 141.101562 C 253.308594 154.171875 255.441406 167.578125 255.601562 181.132812 C 256.257812 221.664062 242.335938 256.460938 214.269531 285.382812 C 209.683594 289.960938 204.78125 294.195312 199.519531 297.964844 C 196.738281 297.964844 195.421875 295.835938 194.277344 293.878906 C 192.144531 290.289062 190.839844 286.191406 190.183594 282.113281 C 189.195312 277.210938 188.546875 272.304688 188.867188 267.242188 L 188.867188 264.957031 C 188.640625 264.46875 186.191406 39.46875 187.167969 38.316406 Z M 187.167969 38.316406 " fill-opacity="1" fill-rule="nonzero"/><g clip-path="url(#2943b0ba5e)"><path fill="#6cac48" d="M 187.167969 37.820312 C 186.835938 37.164062 186.507812 37.660156 186.179688 37.976562 C 186.339844 41.257812 185.195312 44.183594 183.398438 46.976562 C 181.425781 49.753906 178.816406 51.882812 176.195312 54.167969 C 161.632812 66.75 150.175781 81.945312 140.996094 98.945312 C 128.785156 121.820312 122.492188 146.335938 120.707031 172.144531 C 119.890625 181.453125 123.65625 214.304688 126.597656 223.78125 C 134.617188 248.945312 149.027344 270.027344 167.695312 288.328125 C 172.277344 292.734375 177.179688 296.820312 182.253906 300.75 C 183.730469 300.75 183.886719 299.4375 184.226562 298.460938 C 184.875 296.375 185.367188 294.25 185.703125 292.085938 L 188.988281 267.582031 Z M 187.167969 37.820312 " fill-opacity="1" fill-rule="nonzero"/></g><g clip-path="url(#ce39f2d72f)"><path fill="#c2bfbf" d="M 195.1875 307.921875 C 195.519531 304.171875 197.320312 301.058594 199.285156 297.957031 C 197.3125 297.140625 195.847656 295.519531 194.699219 293.710938 C 193.714844 292.078125 192.898438 290.117188 192.257812 288.320312 C 189.964844 281.457031 189.476562 274.257812 188.820312 267.242188 L 188.820312 262.996094 C 188.003906 263.652344 187.832031 269.203125 187.832031 270.027344 C 187.355469 277.449219 186.371094 284.800781 184.882812 292.085938 C 184.394531 295.03125 184.066406 297.964844 182.253906 300.582031 C 182.253906 300.910156 182.253906 301.238281 182.414062 301.726562 C 185.363281 310.386719 186.171875 319.210938 186.667969 328.199219 L 186.667969 331.480469 C 186.667969 335.398438 186.507812 334.574219 189.769531 335.886719 C 191.082031 336.375 192.550781 336.542969 193.863281 337.519531 C 194.851562 337.519531 195.011719 336.703125 195.011719 336.046875 L 194.523438 330.65625 L 194.523438 315.617188 C 194.363281 312.992188 194.851562 310.386719 195.179688 307.929688 Z M 195.1875 307.921875 " fill-opacity="1" fill-rule="nonzero"/></g></svg>