<svg xmlns="http://www.w3.org/2000/svg" xmlns:xlink="http://www.w3.org/1999/xlink" width="500" zoomAndPan="magnify" viewBox="0 0 375 374.999991" height="500" preserveAspectRatio="xMidYMid meet" version="1.0"><defs><clipPath id="2d0a04d6ac"><path d="M 64 46 L 314.148438 46 L 314.148438 291 L 64 291 Z M 64 46 " clip-rule="nonzero"/></clipPath><clipPath id="b9155852b4"><path d="M 54 281 L 172 281 L 172 337.820312 L 54 337.820312 Z M 54 281 " clip-rule="nonzero"/></clipPath></defs><g clip-path="url(#2d0a04d6ac)"><path fill="#54b9dd" d="M 294.660156 235.488281 C 281.074219 235.113281 270.535156 236.503906 261.699219 240.21875 C 259.15625 241.242188 255.074219 241.242188 254.738281 244.445312 C 256.097656 245.785156 256.261719 247.984375 257.453125 249.847656 C 259.492188 253.226562 263.0625 257.777344 266.289062 260.140625 L 277.160156 267.910156 C 283.785156 271.957031 291.257812 274.324219 297.714844 278.375 C 301.453125 280.742188 305.1875 283.78125 308.925781 286.316406 C 310.832031 287.664062 311.984375 289.863281 314.363281 290.703125 L 314.363281 290.195312 C 313.175781 288.679688 312.832031 286.484375 311.648438 284.789062 L 306.546875 279.898438 C 301.625 273.3125 295.503906 267.566406 288.878906 262.84375 C 283.441406 259.128906 271.554688 254.066406 269.34375 247.824219 L 269.011719 247.445312 C 272.742188 247.066406 277.160156 245.753906 280.730469 244.738281 C 286.511719 243.226562 291.773438 243.558594 297.714844 242.039062 L 305.871094 239.675781 L 305.871094 238.160156 C 302.816406 235.125 300.605469 231.070312 297.382812 228.203125 C 288.71875 220.773438 279.199219 213.511719 269.34375 207.433594 C 264.078125 204.058594 257.28125 201.859375 251.675781 198.996094 C 249.632812 197.980469 246.238281 197.476562 245.050781 195.789062 C 241.988281 192.078125 240.292969 187.179688 238.082031 182.785156 L 224.15625 153.410156 C 221.097656 146.824219 219.222656 140.238281 215.492188 134.164062 C 197.992188 105.460938 178.960938 88.074219 149.742188 71.015625 C 143.457031 67.472656 135.984375 65.945312 128.035156 64.09375 L 115.296875 63.410156 C 112.574219 62.230469 109.859375 59.023438 107.480469 57.5 C 97.796875 51.421875 72.820312 38.253906 65.679688 55.609375 C 61.09375 66.582031 72.476562 77.386719 76.34375 82.960938 C 79.238281 86.84375 82.96875 91.230469 85.011719 95.621094 C 86.15625 98.488281 86.535156 101.53125 87.726562 104.570312 C 90.441406 112 92.996094 120.273438 96.5625 127.199219 C 98.464844 130.746094 100.464844 134.464844 102.84375 137.671875 C 104.203125 139.5625 106.582031 140.371094 107.089844 143.410156 C 104.710938 146.789062 104.546875 151.851562 103.1875 156.078125 C 97.070312 175.15625 99.449219 198.792969 108.109375 212.839844 C 110.832031 217.058594 117.25 226.347656 125.953125 222.796875 C 133.601562 219.757812 131.894531 210.136719 134.101562 201.695312 C 134.617188 199.667969 134.273438 198.320312 135.289062 196.964844 L 135.289062 197.34375 L 142.257812 211.355469 C 147.523438 219.628906 156.703125 228.238281 164.34375 233.984375 C 168.417969 237.023438 171.648438 242.261719 176.742188 244.113281 L 176.742188 243.601562 L 176.40625 243.601562 C 175.386719 242.089844 173.855469 241.410156 172.496094 240.226562 C 169.4375 237.1875 166.042969 233.472656 163.660156 230.097656 C 156.53125 220.644531 150.246094 210.175781 144.636719 199.371094 C 141.914062 194.136719 139.535156 188.398438 137.335938 183.164062 C 136.308594 181.136719 136.308594 178.09375 134.613281 177.085938 C 132.0625 180.792969 128.328125 184.011719 126.453125 188.566406 C 123.222656 195.824219 122.890625 204.773438 121.699219 214.0625 C 121.015625 214.230469 121.320312 214.0625 121.015625 214.4375 C 115.585938 213.09375 113.710938 207.515625 111.675781 202.792969 C 106.582031 190.804688 105.726562 171.558594 110.144531 157.710938 C 111.332031 154.164062 116.433594 143.019531 114.398438 139.644531 C 113.371094 136.4375 109.980469 134.582031 108.105469 132.046875 C 105.898438 128.839844 103.527344 124.789062 101.996094 121.242188 C 97.921875 111.785156 95.882812 101.320312 91.464844 91.863281 C 89.417969 87.472656 85.855469 82.914062 82.964844 78.867188 C 79.734375 74.304688 76.175781 71.097656 73.625 65.695312 C 72.773438 63.804688 71.585938 60.800781 72.945312 58.773438 C 73.28125 57.421875 73.96875 56.878906 75.320312 56.578125 C 77.527344 54.683594 83.816406 57.085938 86.027344 58.089844 C 92.308594 60.625 97.574219 62.988281 102.839844 66.527344 C 105.222656 68.21875 107.773438 71.425781 110.828125 72.273438 L 114.402344 72.273438 C 119.839844 73.453125 125.949219 72.652344 131.042969 74.164062 C 140.046875 77.042969 148.199219 81.257812 155.507812 85.820312 C 177.761719 99.832031 196.117188 119.757812 208.511719 143.566406 C 210.550781 147.449219 211.398438 150.996094 213.273438 155.046875 C 216.84375 163.324219 221.261719 171.761719 224.820312 179.871094 C 228.394531 187.804688 231.789062 195.914062 236.882812 202.5 C 239.4375 206.046875 249.625 207.898438 254.210938 209.757812 C 257.609375 211.273438 262.871094 212.632812 265.9375 214.488281 C 271.710938 218.035156 277.488281 222.085938 282.921875 225.96875 C 285.636719 227.988281 294.132812 232.214844 294.640625 235.582031 Z M 121.40625 88.773438 C 119.050781 88.75 116.730469 89.03125 114.445312 89.617188 L 114.445312 89.996094 L 114.78125 89.996094 C 116.140625 92.695312 118.519531 94.554688 120.21875 96.917969 L 124.128906 105.023438 L 124.464844 104.648438 C 126.84375 102.960938 128.035156 100.257812 128.035156 96.207031 C 127.015625 95.027344 126.847656 93.84375 126 92.664062 C 124.980469 90.976562 122.769531 90.128906 121.40625 88.78125 Z M 121.40625 88.773438 " fill-opacity="1" fill-rule="evenodd"/></g><path fill="#ffbd59" d="M 179.070312 325.105469 L 205.980469 325.105469 C 209.132812 325.105469 212.132812 324.46875 214.574219 323.324219 C 218.644531 321.449219 220.578125 318.953125 220.578125 315.667969 L 220.578125 308.800781 C 220.578125 306.171875 218.363281 303.640625 213.933594 301.933594 C 211.367188 301.019531 208.722656 300.570312 205.996094 300.582031 L 194.699219 300.582031 C 190.910156 300.582031 189.128906 299.453125 188.621094 296.941406 C 188.546875 296.660156 188.546875 296.378906 188.546875 296.078125 L 188.546875 291.855469 C 188.546875 291.628906 188.546875 291.347656 188.621094 291.066406 C 189.128906 289.132812 190.121094 288.628906 193.425781 288.253906 L 220.972656 288.253906 L 220.972656 282.023438 L 194.757812 282.023438 C 190.964844 282.023438 188.941406 282.246094 187.175781 282.808594 C 181.660156 284.5 179.238281 287.238281 179.238281 292.042969 L 179.238281 297.484375 C 179.238281 301.707031 183.96875 305.289062 192 306.117188 C 192.863281 306.191406 193.78125 306.191406 194.71875 306.191406 L 204.382812 306.191406 C 204.757812 306.191406 205.097656 306.191406 205.378906 306.265625 C 208.304688 306.546875 209.601562 307.054688 210.445312 308.144531 C 211.007812 308.707031 211.15625 309.210938 211.15625 309.871094 L 211.15625 315.3125 C 211.15625 315.949219 210.726562 316.8125 209.84375 317.527344 C 208.960938 318.238281 207.628906 318.746094 205.828125 318.839844 C 205.453125 318.839844 205.265625 318.914062 204.890625 318.914062 L 179.070312 318.914062 Z M 278.804688 314.296875 C 278.804688 320.679688 283.609375 324.242188 293.199219 324.957031 L 295.917969 325.105469 L 320.238281 325.105469 L 320.238281 318.914062 L 295.714844 318.914062 C 290.082031 318.914062 288.207031 317.5625 288.207031 314.261719 L 288.207031 282.039062 L 278.824219 282.039062 L 278.824219 314.316406 Z M 226.507812 314.578125 L 226.507812 292.417969 C 226.507812 286.789062 230.503906 283.335938 238.328125 282.285156 L 240.824219 282.132812 L 258.578125 282.132812 C 259.515625 282.132812 260.304688 282.210938 261.203125 282.285156 C 269.011719 283.355469 272.933594 286.789062 272.933594 292.417969 L 272.933594 314.597656 C 272.933594 319.175781 271.28125 321.617188 267.414062 323.230469 L 276.574219 331.523438 L 265.765625 331.523438 L 258.316406 324.804688 L 250.808594 325.238281 L 240.789062 325.238281 C 239.136719 325.238281 237.277344 325.050781 235.160156 324.523438 C 229.230469 322.875 226.28125 319.722656 226.28125 314.578125 Z M 236.601562 314.089844 C 236.601562 314.371094 236.753906 314.65625 236.828125 315.03125 C 237.335938 317.601562 239.757812 319.027344 243.472656 319.027344 L 251.914062 319.027344 L 244.183594 312.007812 L 254.992188 312.007812 L 261.785156 318.164062 C 263.101562 317.449219 263.851562 316.4375 264.152344 315.160156 C 264.226562 314.878906 264.226562 314.523438 264.226562 314.222656 L 264.226562 293.019531 C 264.226562 292.738281 264.226562 292.457031 264.152344 292.15625 C 263.644531 289.714844 261.222656 288.363281 257.582031 288.363281 L 243.507812 288.363281 C 239.378906 288.363281 236.640625 290.148438 236.640625 293.019531 Z M 236.601562 314.089844 " fill-opacity="1" fill-rule="evenodd"/><g clip-path="url(#b9155852b4)"><path fill="#54b9dd" d="M 54.863281 325.144531 L 64.171875 325.144531 L 64.171875 288.289062 L 78.695312 320.414062 C 80.347656 324.28125 82.710938 325.707031 87.289062 325.707031 C 91.867188 325.707031 94.082031 324.28125 95.808594 320.414062 L 110.257812 288.289062 L 110.257812 325.144531 L 119.640625 325.144531 L 119.640625 288.289062 C 119.640625 284.722656 118.214844 282.996094 115.210938 282.058594 C 108.136719 279.921875 103.390625 281.777344 101.25 286.5625 L 86.988281 318.332031 L 73.253906 286.5625 C 71.1875 281.777344 66.386719 279.921875 59.234375 282.058594 C 56.308594 282.996094 54.863281 284.6875 54.863281 288.289062 Z M 127.351562 295.15625 L 136.734375 295.15625 L 136.734375 315.425781 C 136.660156 316.550781 137.109375 319.140625 142.363281 319.214844 L 162.480469 319.214844 L 162.480469 295.007812 L 171.863281 295.007812 L 171.863281 328.128906 C 171.863281 336.289062 161.769531 338.074219 157.039062 338.148438 L 127.578125 338.148438 L 127.578125 331.917969 L 157.132812 331.917969 C 163.136719 331.28125 162.425781 328.277344 162.425781 327.265625 L 162.425781 324.824219 L 142.589844 324.824219 C 133.359375 324.75 127.429688 320.695312 127.351562 316.003906 Z M 127.351562 295.15625 " fill-opacity="1" fill-rule="evenodd"/></g></svg>