<svg xmlns="http://www.w3.org/2000/svg" xmlns:xlink="http://www.w3.org/1999/xlink" width="500" zoomAndPan="magnify" viewBox="0 0 375 374.999991" height="500" preserveAspectRatio="xMidYMid meet" version="1.0"><defs><clipPath id="5c049c2ac8"><path d="M 51.410156 38 L 323 38 L 323 337 L 51.410156 337 Z M 51.410156 38 " clip-rule="nonzero"/></clipPath></defs><g clip-path="url(#5c049c2ac8)"><path fill="#8cc84b" d="M 174.96875 41.492188 C 182.449219 37.257812 191.984375 37.238281 199.277344 41.492188 L 310.929688 104.414062 C 317.914062 108.339844 322.585938 116.125 322.523438 124.171875 L 322.523438 250.339844 C 322.570312 258.722656 317.4375 266.675781 310.070312 270.527344 L 199.015625 333.164062 C 198.066406 333.6875 197.09375 334.144531 196.085938 334.535156 C 195.078125 334.925781 194.050781 335.25 193.003906 335.507812 C 191.953125 335.761719 190.890625 335.945312 189.816406 336.058594 C 188.742188 336.171875 187.664062 336.214844 186.585938 336.1875 C 185.507812 336.15625 184.433594 336.054688 183.367188 335.882812 C 182.300781 335.707031 181.25 335.464844 180.214844 335.152344 C 179.183594 334.839844 178.175781 334.460938 177.191406 334.011719 C 176.207031 333.566406 175.257812 333.054688 174.34375 332.480469 L 141.015625 313.230469 C 138.746094 311.875 136.195312 310.800781 134.585938 308.601562 C 136.007812 306.695312 138.53125 306.453125 140.585938 305.613281 C 145.222656 304.136719 149.46875 301.875 153.730469 299.480469 C 154.804688 298.734375 156.125 299.015625 157.152344 299.6875 L 185.570312 316.117188 C 187.597656 317.285156 189.65625 315.742188 191.394531 314.761719 L 300.441406 253.238281 C 301.789062 252.585938 302.535156 251.164062 302.421875 249.6875 L 302.421875 124.734375 C 302.574219 123.050781 301.609375 121.519531 300.085938 120.835938 L 189.308594 58.472656 C 188.992188 58.25 188.644531 58.082031 188.277344 57.96875 C 187.90625 57.851562 187.527344 57.792969 187.136719 57.792969 C 186.75 57.789062 186.371094 57.847656 186 57.960938 C 185.628906 58.078125 185.285156 58.242188 184.964844 58.460938 L 74.347656 120.957031 C 72.851562 121.640625 71.820312 123.152344 72.007812 124.835938 L 72.007812 249.789062 C 71.878906 251.265625 72.664062 252.660156 74.019531 253.292969 L 103.578125 269.976562 C 109.128906 272.96875 115.945312 274.648438 122.058594 272.453125 C 122.722656 272.203125 123.367188 271.902344 123.984375 271.554688 C 124.605469 271.207031 125.195312 270.8125 125.753906 270.375 C 126.3125 269.9375 126.835938 269.460938 127.324219 268.945312 C 127.8125 268.425781 128.257812 267.875 128.660156 267.289062 C 129.0625 266.707031 129.421875 266.09375 129.730469 265.453125 C 130.039062 264.816406 130.300781 264.15625 130.511719 263.476562 C 130.71875 262.796875 130.878906 262.105469 130.984375 261.40625 C 131.085938 260.703125 131.140625 259.996094 131.136719 259.285156 L 131.164062 135.078125 C 131.035156 133.238281 132.773438 131.714844 134.558594 131.902344 L 148.765625 131.902344 C 150.636719 131.855469 152.105469 133.835938 151.851562 135.6875 L 151.824219 260.675781 C 151.832031 271.78125 147.269531 283.855469 136.996094 289.304688 C 124.339844 295.847656 108.691406 294.472656 96.183594 288.183594 L 64.398438 270.613281 C 56.921875 266.875 51.902344 258.800781 51.949219 250.425781 L 51.949219 124.257812 C 51.957031 123.238281 52.03125 122.222656 52.171875 121.210938 C 52.316406 120.199219 52.527344 119.203125 52.800781 118.21875 C 53.078125 117.238281 53.417969 116.277344 53.820312 115.339844 C 54.226562 114.402344 54.6875 113.496094 55.214844 112.621094 C 55.738281 111.746094 56.316406 110.90625 56.953125 110.109375 C 57.589844 109.3125 58.277344 108.558594 59.011719 107.851562 C 59.75 107.144531 60.527344 106.488281 61.351562 105.886719 C 62.175781 105.28125 63.035156 104.738281 63.933594 104.246094 Z M 207.164062 128.949219 C 223.308594 128.015625 240.59375 128.332031 255.121094 136.285156 C 266.367188 142.378906 272.601562 155.164062 272.808594 167.667969 C 272.492188 169.351562 270.734375 170.285156 269.125 170.164062 C 264.449219 170.152344 259.757812 170.230469 255.066406 170.136719 C 253.074219 170.210938 251.925781 168.378906 251.671875 166.621094 C 250.324219 160.640625 247.0625 154.722656 241.4375 151.835938 C 232.796875 147.507812 222.777344 147.722656 213.355469 147.816406 C 206.472656 148.191406 199.078125 148.78125 193.253906 152.816406 C 188.769531 155.882812 187.421875 162.164062 189.019531 167.042969 C 190.515625 170.621094 194.65625 171.769531 198.03125 172.835938 C 217.496094 177.921875 238.109375 177.507812 257.207031 184.117188 C 265.105469 186.847656 272.835938 192.152344 275.546875 200.425781 C 279.082031 211.507812 277.539062 224.761719 269.65625 233.660156 C 263.265625 240.984375 253.953125 244.875 244.652344 247.136719 C 232.285156 249.890625 219.457031 249.957031 206.902344 248.722656 C 195.097656 247.378906 182.8125 244.277344 173.699219 236.238281 C 165.902344 229.472656 162.105469 218.929688 162.480469 208.761719 C 162.574219 207.042969 164.285156 205.847656 165.941406 205.984375 L 179.960938 205.984375 C 181.851562 205.855469 183.234375 207.480469 183.328125 209.257812 C 184.195312 214.863281 186.335938 220.9375 191.3125 224.210938 C 200.902344 230.398438 212.933594 229.96875 223.90625 230.144531 C 233.003906 229.742188 243.210938 229.621094 250.644531 223.601562 C 254.570312 220.171875 255.71875 214.445312 254.664062 209.507812 C 253.515625 205.339844 249.054688 203.40625 245.316406 202.03125 C 226.105469 195.957031 205.257812 198.164062 186.234375 191.285156 C 178.511719 188.554688 171.042969 183.398438 168.082031 175.460938 C 163.9375 164.246094 165.835938 150.351562 174.558594 141.753906 C 182.972656 133.199219 195.3125 129.902344 206.996094 128.722656 Z M 207.164062 128.949219 " fill-opacity="1" fill-rule="nonzero"/></g></svg>